<svg width="30" height="30" viewBox="0 0 30 30" fill="none" xmlns="http://www.w3.org/2000/svg">
<path d="M9.90039 16.4219L9.90723 16.6846C10.0396 19.2922 12.1305 21.3826 14.7383 21.5146L15 21.5215C17.7283 21.5213 19.9569 19.3789 20.0938 16.6846L20.1006 16.4219V11.0869H20.5C22.1568 11.0869 23.5 12.4301 23.5 14.0869V22C23.5 23.6568 22.1568 25 20.5 25H9.5C7.84316 25 6.50002 23.6568 6.5 22V14.0869C6.50003 12.4301 7.84317 11.0869 9.5 11.0869H9.90039V16.4219ZM18.1006 16.4219C18.1005 18.1337 16.7118 19.5213 15 19.5215C13.2882 19.5213 11.9005 18.1337 11.9004 16.4219V11.0869H18.1006V16.4219ZM15.2627 5.00684C17.9571 5.14355 20.1004 7.37124 20.1006 10.0996V11.0869H18.1006V10.0996C18.1004 8.38784 16.7118 7.00021 15 7C13.2882 7.00021 11.9006 8.38784 11.9004 10.0996V11.0869H9.90039V10.0996C9.9006 7.28327 12.1837 5.00021 15 5L15.2627 5.00684Z" fill="white"/>
</svg>
